<svg version="1.2" xmlns="http://www.w3.org/2000/svg" viewBox="0 0 1080 1080" width="1080" height="1080">
	<title>favicon</title>
	<style>
		.s0 { fill: #ffffff } 
		.s1 { fill: #ed5087 } 
		.s2 { fill: #20317b } 
	</style>
	<path id="Shape 1" class="s0" d="m540 1080c-298.6 0-540-241.4-540-540 0-298.6 241.4-540 540-540 298.6 0 540 241.4 540 540 0 298.6-241.4 540-540 540z"/>
	<g id="Layer">
		<path id="Layer" class="s1" d="m344.6 406.3v129.4h280 280l-0.1-112.2-0.1-112.2-1.1-4c-4.1-14.4-14.5-24.8-29-28.9l-4-1.2-262.8-0.1-262.9-0.1z"/>
		<path id="Layer" class="s2" d="m175.3 661.3l0.1 109.2 1.2 3.5c2.3 7.6 5.4 13 10.5 18 5.2 5.2 10.5 8.3 18.7 10.8 2.5 0.8 21.3 0.8 265.1 1l262.3 0.1v-125.9-125.8h-279-279z"/>
	</g>
</svg>