<?xml version="1.0" encoding="iso-8859-1"?>
<!-- Uploaded to: SVG Repo, www.svgrepo.com, Generator: SVG Repo Mixer Tools -->
<svg height="800px" width="800px" version="1.1" id="Layer_1" xmlns="http://www.w3.org/2000/svg" xmlns:xlink="http://www.w3.org/1999/xlink" 
	 viewBox="0 0 512 512" xml:space="preserve">
<path style="fill:#E15649;" d="M0,475.429h128v-73.143H0V475.429z"/>
<path style="fill:#BC342E;" d="M128,475.429h128v-73.143H128V475.429z"/>
<path style="fill:#A52525;" d="M256,475.429h128v-73.143H256V475.429z"/>
<path style="fill:#E15649;" d="M384,475.429h128v-73.143H384V475.429z"/>
<path style="fill:#BC342E;" d="M0,402.286h64v-73.143H0V402.286z"/>
<g>
	<path style="fill:#A52525;" d="M448,402.286h64v-73.143h-64V402.286z"/>
	<path style="fill:#A52525;" d="M64,402.286h128v-73.143H64V402.286z"/>
</g>
<path style="fill:#E15649;" d="M192,402.286h128v-73.143H192V402.286z"/>
<path style="fill:#BC342E;" d="M320,402.286h128v-73.143H320V402.286z"/>
<path style="fill:#E15649;" d="M0,329.143h128V256H0V329.143z"/>
<path style="fill:#BC342E;" d="M128,329.143h128V256H128V329.143z"/>
<path style="fill:#A52525;" d="M256,329.143h128V256H256V329.143z"/>
<path style="fill:#E15649;" d="M384,329.143h128V256H384V329.143z"/>
<path style="fill:#BC342E;" d="M0,256h64v-73.143H0V256z"/>
<g>
	<path style="fill:#A52525;" d="M448,256h64v-73.143h-64V256z"/>
	<path style="fill:#A52525;" d="M64,256h128v-73.143H64V256z"/>
</g>
<path style="fill:#E15649;" d="M192,256h128v-73.143H192V256z"/>
<path style="fill:#BC342E;" d="M320,256h128v-73.143H320V256z"/>
<path style="fill:#E15649;" d="M0,182.857h128v-73.143H0V182.857z"/>
<path style="fill:#BC342E;" d="M128,182.857h128v-73.143H128V182.857z"/>
<path style="fill:#A52525;" d="M256,182.857h128v-73.143H256V182.857z"/>
<path style="fill:#BC342E;" d="M0,109.714h64V36.571H0V109.714z"/>
<path style="fill:#A52525;" d="M64,109.714h128V36.571H64V109.714z"/>
</svg>