<?xml version="1.0" encoding="utf-8"?>

<!DOCTYPE svg PUBLIC "-//W3C//DTD SVG 1.0//EN" "http://www.w3.org/TR/2001/REC-SVG-20010904/DTD/svg10.dtd">
<!-- Uploaded to: SVG Repo, www.svgrepo.com, Generator: SVG Repo Mixer Tools -->
<svg version="1.0" id="Layer_1" xmlns="http://www.w3.org/2000/svg" xmlns:xlink="http://www.w3.org/1999/xlink" 
	 width="800px" height="800px" viewBox="0 0 64 64" enable-background="new 0 0 64 64" xml:space="preserve">
<g>
	<path fill="#394240" d="M62.828,16.484L47.512,1.172c-1.562-1.562-4.094-1.562-5.656,0L0,43.031V64h20.973l41.855-41.855
		C64.391,20.578,64.391,18.051,62.828,16.484z M18,56H8V46l0.172-0.172l10,10L18,56z M23.828,50.172l-10-10L44,10l10,10
		L23.828,50.172z"/>
	<polygon fill="#F9EBB2" points="18,56 8,56 8,46 8.172,45.828 18.172,55.828 	"/>
	
		<rect x="26.843" y="8.751" transform="matrix(0.7071 0.7071 -0.7071 0.7071 31.2072 -15.1689)" fill="#45AAB8" width="14.142" height="42.669"/>
</g>
</svg>