<?xml version="1.0" encoding="iso-8859-1"?>
<!-- Generator: Adobe Illustrator 18.0.0, SVG Export Plug-In . SVG Version: 6.00 Build 0)  -->
<!DOCTYPE svg PUBLIC "-//W3C//DTD SVG 1.1//EN" "http://www.w3.org/Graphics/SVG/1.1/DTD/svg11.dtd">
<svg version="1.1" id="Capa_1" xmlns="http://www.w3.org/2000/svg" xmlns:xlink="http://www.w3.org/1999/xlink" x="0px" y="0px"
	 viewBox="0 0 58 58" style="enable-background:new 0 0 58 58;" xml:space="preserve">
<g>
	<path style="fill:#E57E25;" d="M25,37.376c1.539,0,2.938,0.584,4,1.537v-7.298c0-1.789-1.45-3.239-3.239-3.239h-7.448
		c1.618-1.075,2.686-2.912,2.686-5c0-3.314-2.686-6-6-6s-6,2.686-6,6c0,2.088,1.068,3.925,2.686,5H3.239
		C1.45,28.376,0,29.826,0,31.615v8.447c1.075-1.618,2.912-2.686,5-2.686c3.314,0,6,2.686,6,6s-2.686,6-6,6
		c-2.088,0-3.925-1.068-5-2.686v7.447c0,1.789,1.45,3.239,3.239,3.239h22.523c1.789,0,3.239-1.45,3.239-3.239V47.84
		c-1.062,0.952-2.461,1.537-4,1.537c-3.314,0-6-2.686-6-6S21.686,37.376,25,37.376z"/>
	<path style="fill:#F0C419;" d="M26.832,14.761c1.666,0.489,3.382,0.068,4.619-0.971c-0.104,0.353-0.196,0.668-0.269,0.917
		l-1.71,5.824c-0.419,1.427,0.398,2.924,1.825,3.343l5.943,1.745c-1.543,0.478-2.826,1.694-3.315,3.36
		c-0.777,2.644,0.737,5.417,3.381,6.194c2.644,0.777,5.417-0.737,6.194-3.381c0.489-1.666,0.068-3.382-0.971-4.619l6.741,1.98
		c1.427,0.419,2.924-0.398,3.343-1.825l1.98-6.741c-1.237,1.039-2.953,1.461-4.619,0.971c-2.644-0.777-4.158-3.55-3.381-6.194
		s3.55-4.158,6.194-3.381c1.666,0.489,2.882,1.772,3.36,3.315l1.745-5.943c0.419-1.427-0.398-2.924-1.825-3.343L38.093,0.733
		c-1.427-0.419-2.924,0.398-3.343,1.825l-1.476,5.026c-0.08,0.271-0.171,0.583-0.269,0.917c-0.478-1.543-1.694-2.826-3.36-3.315
		C27,4.409,24.227,5.923,23.451,8.567S24.188,13.985,26.832,14.761z"/>
</g>
<g>
</g>
<g>
</g>
<g>
</g>
<g>
</g>
<g>
</g>
<g>
</g>
<g>
</g>
<g>
</g>
<g>
</g>
<g>
</g>
<g>
</g>
<g>
</g>
<g>
</g>
<g>
</g>
<g>
</g>
</svg>
